<svg width="18" height="18" viewBox="0 0 18 18" fill="none" xmlns="http://www.w3.org/2000/svg">
<path d="M9.16665 0.666626C7.51847 0.666626 5.90731 1.15537 4.5369 2.07105C3.16649 2.98672 2.09838 4.28821 1.46765 5.81093C0.836924 7.33365 0.671896 9.0092 0.993439 10.6257C1.31498 12.2422 2.10866 13.7271 3.27409 14.8925C4.43953 16.058 5.92439 16.8516 7.5409 17.1732C9.15741 17.4947 10.833 17.3297 12.3557 16.699C13.8784 16.0682 15.1799 15.0001 16.0956 13.6297C17.0112 12.2593 17.5 10.6481 17.5 8.99996C17.5 7.90561 17.2844 6.82198 16.8656 5.81093C16.4469 4.79988 15.833 3.88122 15.0592 3.1074C14.2854 2.33358 13.3667 1.71975 12.3557 1.30096C11.3446 0.882174 10.261 0.666626 9.16665 0.666626ZM9.16665 15.6666C7.84811 15.6666 6.55918 15.2756 5.46285 14.5431C4.36652 13.8105 3.51204 12.7694 3.00745 11.5512C2.50287 10.333 2.37085 8.99256 2.62808 7.69936C2.88532 6.40615 3.52025 5.21826 4.4526 4.28591C5.38495 3.35356 6.57284 2.71863 7.86605 2.46139C9.15926 2.20416 10.4997 2.33618 11.7179 2.84076C12.936 3.34535 13.9772 4.19983 14.7098 5.29616C15.4423 6.39249 15.8333 7.68142 15.8333 8.99996C15.8333 10.7681 15.1309 12.4638 13.8807 13.714C12.6305 14.9642 10.9348 15.6666 9.16665 15.6666ZM9.99998 8.94163V4.83329C9.99998 4.61228 9.91219 4.40032 9.75591 4.24404C9.59963 4.08776 9.38766 3.99996 9.16665 3.99996C8.94564 3.99996 8.73368 4.08776 8.57739 4.24404C8.42111 4.40032 8.33332 4.61228 8.33332 4.83329V8.99996C8.33332 8.99996 8.33332 9.05829 8.33332 9.09163C8.31281 9.26103 8.34481 9.43266 8.42498 9.58329L9.67498 11.75C9.78549 11.9422 9.96785 12.0827 10.182 12.1406C10.3961 12.1984 10.6244 12.1688 10.8166 12.0583C11.0089 11.9478 11.1494 11.7654 11.2073 11.5513C11.2651 11.3372 11.2355 11.1089 11.125 10.9166L9.99998 8.94163Z" fill="#71839B"/>
</svg>
