<svg width="20" height="20" viewBox="0 0 20 20" fill="none" xmlns="http://www.w3.org/2000/svg">
<path d="M15.8334 3.33335H14.1667V2.50002C14.1667 2.27901 14.0789 2.06704 13.9226 1.91076C13.7663 1.75448 13.5544 1.66669 13.3334 1.66669C13.1123 1.66669 12.9004 1.75448 12.7441 1.91076C12.5878 2.06704 12.5 2.27901 12.5 2.50002V3.33335H7.50002V2.50002C7.50002 2.27901 7.41222 2.06704 7.25594 1.91076C7.09966 1.75448 6.8877 1.66669 6.66669 1.66669C6.44567 1.66669 6.23371 1.75448 6.07743 1.91076C5.92115 2.06704 5.83335 2.27901 5.83335 2.50002V3.33335H4.16669C3.50365 3.33335 2.86776 3.59675 2.39892 4.06559C1.93008 4.53443 1.66669 5.17031 1.66669 5.83335V15.8334C1.66669 16.4964 1.93008 17.1323 2.39892 17.6011C2.86776 18.07 3.50365 18.3334 4.16669 18.3334H15.8334C16.4964 18.3334 17.1323 18.07 17.6011 17.6011C18.07 17.1323 18.3334 16.4964 18.3334 15.8334V5.83335C18.3334 5.17031 18.07 4.53443 17.6011 4.06559C17.1323 3.59675 16.4964 3.33335 15.8334 3.33335ZM16.6667 15.8334C16.6667 16.0544 16.5789 16.2663 16.4226 16.4226C16.2663 16.5789 16.0544 16.6667 15.8334 16.6667H4.16669C3.94567 16.6667 3.73371 16.5789 3.57743 16.4226C3.42115 16.2663 3.33335 16.0544 3.33335 15.8334V10H16.6667V15.8334ZM16.6667 8.33335H3.33335V5.83335C3.33335 5.61234 3.42115 5.40038 3.57743 5.2441C3.73371 5.08782 3.94567 5.00002 4.16669 5.00002H5.83335V5.83335C5.83335 6.05437 5.92115 6.26633 6.07743 6.42261C6.23371 6.57889 6.44567 6.66669 6.66669 6.66669C6.8877 6.66669 7.09966 6.57889 7.25594 6.42261C7.41222 6.26633 7.50002 6.05437 7.50002 5.83335V5.00002H12.5V5.83335C12.5 6.05437 12.5878 6.26633 12.7441 6.42261C12.9004 6.57889 13.1123 6.66669 13.3334 6.66669C13.5544 6.66669 13.7663 6.57889 13.9226 6.42261C14.0789 6.26633 14.1667 6.05437 14.1667 5.83335V5.00002H15.8334C16.0544 5.00002 16.2663 5.08782 16.4226 5.2441C16.5789 5.40038 16.6667 5.61234 16.6667 5.83335V8.33335Z" fill="#71839B"/>
</svg>
