<svg width="20" height="20" viewBox="0 0 20 20" fill="none" xmlns="http://www.w3.org/2000/svg">
<path d="M9.16665 1.66663C7.51847 1.66663 5.90731 2.15537 4.5369 3.07105C3.16649 3.98672 2.09838 5.28821 1.46765 6.81093C0.836924 8.33365 0.671896 10.0092 0.993439 11.6257C1.31498 13.2422 2.10866 14.7271 3.27409 15.8925C4.43953 17.058 5.92439 17.8516 7.5409 18.1732C9.15741 18.4947 10.833 18.3297 12.3557 17.699C13.8784 17.0682 15.1799 16.0001 16.0956 14.6297C17.0112 13.2593 17.5 11.6481 17.5 9.99996C17.5 8.90561 17.2844 7.82198 16.8656 6.81093C16.4469 5.79988 15.833 4.88122 15.0592 4.1074C14.2854 3.33358 13.3667 2.71975 12.3557 2.30096C11.3446 1.88217 10.261 1.66663 9.16665 1.66663ZM9.16665 16.6666C7.84811 16.6666 6.55918 16.2756 5.46285 15.5431C4.36652 14.8105 3.51204 13.7694 3.00745 12.5512C2.50287 11.333 2.37085 9.99256 2.62808 8.69936C2.88532 7.40615 3.52025 6.21826 4.4526 5.28591C5.38495 4.35356 6.57284 3.71863 7.86605 3.46139C9.15926 3.20416 10.4997 3.33618 11.7179 3.84076C12.936 4.34535 13.9772 5.19983 14.7098 6.29616C15.4423 7.39249 15.8333 8.68142 15.8333 9.99996C15.8333 11.7681 15.1309 13.4638 13.8807 14.714C12.6305 15.9642 10.9348 16.6666 9.16665 16.6666ZM9.99998 9.94163V5.83329C9.99998 5.61228 9.91219 5.40032 9.75591 5.24404C9.59963 5.08776 9.38766 4.99996 9.16665 4.99996C8.94564 4.99996 8.73368 5.08776 8.57739 5.24404C8.42111 5.40032 8.33332 5.61228 8.33332 5.83329V9.99996C8.33332 9.99996 8.33332 10.0583 8.33332 10.0916C8.31281 10.261 8.34481 10.4327 8.42498 10.5833L9.67498 12.75C9.78549 12.9422 9.96785 13.0827 10.182 13.1406C10.3961 13.1984 10.6244 13.1688 10.8166 13.0583C11.0089 12.9478 11.1494 12.7654 11.2073 12.5513C11.2651 12.3372 11.2355 12.1089 11.125 11.9166L9.99998 9.94163Z" fill="#71839B"/>
</svg>
