<svg width="20" height="20" viewBox="0 0 20 20" fill="none" xmlns="http://www.w3.org/2000/svg">
<path d="M4.99998 9.16663C4.83516 9.16663 4.67405 9.2155 4.537 9.30707C4.39996 9.39864 4.29315 9.52878 4.23008 9.68106C4.16701 9.83333 4.1505 10.0009 4.18266 10.1625C4.21481 10.3242 4.29418 10.4727 4.41072 10.5892C4.52727 10.7058 4.67575 10.7851 4.8374 10.8173C4.99905 10.8494 5.16661 10.8329 5.31888 10.7699C5.47115 10.7068 5.6013 10.6 5.69287 10.4629C5.78444 10.3259 5.83331 10.1648 5.83331 9.99996C5.83331 9.77895 5.74551 9.56698 5.58923 9.4107C5.43295 9.25442 5.22099 9.16663 4.99998 9.16663ZM15 9.16663C14.8352 9.16663 14.674 9.2155 14.537 9.30707C14.4 9.39864 14.2932 9.52878 14.2301 9.68106C14.167 9.83333 14.1505 10.0009 14.1827 10.1625C14.2148 10.3242 14.2942 10.4727 14.4107 10.5892C14.5273 10.7058 14.6758 10.7851 14.8374 10.8173C14.9991 10.8494 15.1666 10.8329 15.3189 10.7699C15.4712 10.7068 15.6013 10.6 15.6929 10.4629C15.7844 10.3259 15.8333 10.1648 15.8333 9.99996C15.8333 9.77895 15.7455 9.56698 15.5892 9.4107C15.433 9.25442 15.221 9.16663 15 9.16663ZM16.6666 4.16663H3.33331C2.67027 4.16663 2.03439 4.43002 1.56555 4.89886C1.09671 5.3677 0.833313 6.00358 0.833313 6.66663V13.3333C0.833313 13.9963 1.09671 14.6322 1.56555 15.1011C2.03439 15.5699 2.67027 15.8333 3.33331 15.8333H16.6666C17.3297 15.8333 17.9656 15.5699 18.4344 15.1011C18.9033 14.6322 19.1666 13.9963 19.1666 13.3333V6.66663C19.1666 6.00358 18.9033 5.3677 18.4344 4.89886C17.9656 4.43002 17.3297 4.16663 16.6666 4.16663ZM17.5 13.3333C17.5 13.5543 17.4122 13.7663 17.2559 13.9225C17.0996 14.0788 16.8877 14.1666 16.6666 14.1666H3.33331C3.1123 14.1666 2.90034 14.0788 2.74406 13.9225C2.58778 13.7663 2.49998 13.5543 2.49998 13.3333V6.66663C2.49998 6.44561 2.58778 6.23365 2.74406 6.07737C2.90034 5.92109 3.1123 5.83329 3.33331 5.83329H16.6666C16.8877 5.83329 17.0996 5.92109 17.2559 6.07737C17.4122 6.23365 17.5 6.44561 17.5 6.66663V13.3333ZM9.99998 7.49996C9.50553 7.49996 9.02218 7.64658 8.61105 7.92129C8.19993 8.19599 7.8795 8.58644 7.69028 9.04325C7.50106 9.50007 7.45155 10.0027 7.54802 10.4877C7.64448 10.9726 7.88258 11.4181 8.23221 11.7677C8.58184 12.1174 9.0273 12.3555 9.51225 12.4519C9.99721 12.5484 10.4999 12.4989 10.9567 12.3097C11.4135 12.1204 11.8039 11.8 12.0787 11.3889C12.3534 10.9778 12.5 10.4944 12.5 9.99996C12.5 9.33692 12.2366 8.70103 11.7677 8.23219C11.2989 7.76335 10.663 7.49996 9.99998 7.49996ZM9.99998 10.8333C9.83516 10.8333 9.67404 10.7844 9.537 10.6929C9.39996 10.6013 9.29315 10.4711 9.23008 10.3189C9.16701 10.1666 9.1505 9.99903 9.18266 9.83738C9.21481 9.67573 9.29418 9.52725 9.41072 9.4107C9.52727 9.29416 9.67575 9.21479 9.8374 9.18264C9.99905 9.15048 10.1666 9.16699 10.3189 9.23006C10.4712 9.29313 10.6013 9.39994 10.6929 9.53698C10.7844 9.67402 10.8333 9.83514 10.8333 9.99996C10.8333 10.221 10.7455 10.4329 10.5892 10.5892C10.433 10.7455 10.221 10.8333 9.99998 10.8333Z" fill="#71839B"/>
</svg>
