<svg width="18" height="18" viewBox="0 0 18 18" fill="none" xmlns="http://www.w3.org/2000/svg">
<path d="M9.49169 9.83338L7.57502 11.7417C7.49691 11.8192 7.43492 11.9113 7.39261 12.0129C7.3503 12.1144 7.32852 12.2234 7.32852 12.3334C7.32852 12.4434 7.3503 12.5523 7.39261 12.6539C7.43492 12.7554 7.49691 12.8476 7.57502 12.925C7.65249 13.0031 7.74466 13.0651 7.84621 13.1075C7.94776 13.1498 8.05668 13.1715 8.16669 13.1715C8.2767 13.1715 8.38562 13.1498 8.48717 13.1075C8.58872 13.0651 8.68089 13.0031 8.75835 12.925L12.0917 9.59171C12.1676 9.51246 12.227 9.419 12.2667 9.31671C12.35 9.11382 12.35 8.88626 12.2667 8.68338C12.227 8.58108 12.1676 8.48763 12.0917 8.40838L8.75835 5.07504C8.68066 4.99734 8.58841 4.93571 8.4869 4.89366C8.38538 4.85161 8.27657 4.82997 8.16669 4.82997C8.0568 4.82997 7.948 4.85161 7.84648 4.89366C7.74496 4.93571 7.65272 4.99734 7.57502 5.07504C7.49732 5.15274 7.43569 5.24498 7.39364 5.3465C7.35159 5.44802 7.32994 5.55683 7.32994 5.66671C7.32994 5.77659 7.35159 5.8854 7.39364 5.98692C7.43569 6.08844 7.49732 6.18068 7.57502 6.25838L9.49169 8.16671H1.50002C1.27901 8.16671 1.06704 8.25451 0.910765 8.41079C0.754484 8.56707 0.666687 8.77903 0.666687 9.00004C0.666687 9.22106 0.754484 9.43302 0.910765 9.5893C1.06704 9.74558 1.27901 9.83338 1.50002 9.83338H9.49169ZM9.00002 0.666709C7.4426 0.659756 5.91439 1.08939 4.58874 1.90687C3.2631 2.72435 2.19307 3.89697 1.50002 5.29171C1.40056 5.49062 1.3842 5.7209 1.45453 5.93187C1.52485 6.14285 1.67611 6.31725 1.87502 6.41671C2.07393 6.51616 2.30421 6.53253 2.51519 6.4622C2.72616 6.39188 2.90056 6.24062 3.00002 6.04171C3.52685 4.97781 4.32821 4.07389 5.32131 3.42337C6.31441 2.77284 7.46321 2.39931 8.64898 2.34137C9.83476 2.28343 11.0145 2.54319 12.0663 3.0938C13.1181 3.64441 14.0037 4.4659 14.6318 5.47337C15.2598 6.48084 15.6074 7.63775 15.6387 8.82453C15.67 10.0113 15.3837 11.1849 14.8096 12.2241C14.2355 13.2632 13.3943 14.1302 12.373 14.7354C11.3516 15.3406 10.1872 15.6621 9.00002 15.6667C7.75742 15.6721 6.53848 15.327 5.4831 14.6711C4.42771 14.0152 3.57865 13.0749 3.03335 11.9584C2.9339 11.7595 2.7595 11.6082 2.54852 11.5379C2.33754 11.4676 2.10727 11.4839 1.90835 11.5834C1.70944 11.6828 1.55818 11.8572 1.48786 12.0682C1.41753 12.2792 1.4339 12.5095 1.53335 12.7084C2.19404 14.038 3.19795 15.1669 4.44125 15.9784C5.68454 16.7899 7.12206 17.2545 8.60512 17.3242C10.0882 17.3939 11.5629 17.066 12.8768 16.3746C14.1907 15.6832 15.296 14.6534 16.0784 13.3916C16.8608 12.1298 17.2919 10.6818 17.3271 9.19754C17.3623 7.71327 17.0003 6.24654 16.2786 4.94907C15.5568 3.6516 14.5016 2.57051 13.2219 1.81763C11.9423 1.06475 10.4847 0.667406 9.00002 0.666709Z" fill="#71839B"/>
</svg>
