<svg width="14" height="18" viewBox="0 0 14 18" fill="none" xmlns="http://www.w3.org/2000/svg">
<path d="M12 9.98329V7.33329C11.9988 6.15256 11.5798 5.01035 10.8172 4.10894C10.0545 3.20753 8.99753 2.60508 7.83331 2.40829V1.49996C7.83331 1.27895 7.74552 1.06698 7.58923 0.910704C7.43295 0.754423 7.22099 0.666626 6.99998 0.666626C6.77897 0.666626 6.567 0.754423 6.41072 0.910704C6.25444 1.06698 6.16665 1.27895 6.16665 1.49996V2.40829C5.00243 2.60508 3.94542 3.20753 3.1828 4.10894C2.42019 5.01035 2.00118 6.15256 1.99998 7.33329V9.98329C1.51369 10.1552 1.09248 10.4734 0.794095 10.8941C0.495712 11.3148 0.334763 11.8175 0.333313 12.3333V14C0.333313 14.221 0.421111 14.4329 0.577391 14.5892C0.733671 14.7455 0.945633 14.8333 1.16665 14.8333H3.78331C3.97522 15.5394 4.39415 16.1628 4.97548 16.6072C5.55681 17.0517 6.26823 17.2925 6.99998 17.2925C7.73173 17.2925 8.44315 17.0517 9.02448 16.6072C9.60581 16.1628 10.0247 15.5394 10.2166 14.8333H12.8333C13.0543 14.8333 13.2663 14.7455 13.4226 14.5892C13.5788 14.4329 13.6666 14.221 13.6666 14V12.3333C13.6652 11.8175 13.5042 11.3148 13.2059 10.8941C12.9075 10.4734 12.4863 10.1552 12 9.98329ZM3.66665 7.33329C3.66665 6.44924 4.01784 5.60139 4.64296 4.97627C5.26808 4.35115 6.11592 3.99996 6.99998 3.99996C7.88403 3.99996 8.73188 4.35115 9.357 4.97627C9.98212 5.60139 10.3333 6.44924 10.3333 7.33329V9.83329H3.66665V7.33329ZM6.99998 15.6666C6.70912 15.6649 6.42379 15.587 6.17234 15.4408C5.92089 15.2946 5.71207 15.0852 5.56665 14.8333H8.43331C8.28789 15.0852 8.07907 15.2946 7.82762 15.4408C7.57617 15.587 7.29084 15.6649 6.99998 15.6666ZM12 13.1666H1.99998V12.3333C1.99998 12.1123 2.08778 11.9003 2.24406 11.744C2.40034 11.5878 2.6123 11.5 2.83331 11.5H11.1666C11.3877 11.5 11.5996 11.5878 11.7559 11.744C11.9122 11.9003 12 12.1123 12 12.3333V13.1666Z" fill="#71839B"/>
</svg>
