<svg width="16" height="18" viewBox="0 0 16 18" fill="none" xmlns="http://www.w3.org/2000/svg">
<path d="M13 0.666626H3C2.33696 0.666626 1.70107 0.930018 1.23223 1.39886C0.763392 1.8677 0.5 2.50358 0.5 3.16663V12.3333C0.5 12.9963 0.763392 13.6322 1.23223 14.1011C1.70107 14.5699 2.33696 14.8333 3 14.8333H5.15833L7.40833 17.0916C7.4862 17.1689 7.57855 17.23 7.68008 17.2714C7.78161 17.3129 7.89033 17.3339 8 17.3333C8.19862 17.3333 8.39071 17.2624 8.54167 17.1333L11.225 14.8333H13C13.663 14.8333 14.2989 14.5699 14.7678 14.1011C15.2366 13.6322 15.5 12.9963 15.5 12.3333V3.16663C15.5 2.50358 15.2366 1.8677 14.7678 1.39886C14.2989 0.930018 13.663 0.666626 13 0.666626ZM13.8333 12.3333C13.8333 12.5543 13.7455 12.7663 13.5893 12.9225C13.433 13.0788 13.221 13.1666 13 13.1666H10.9167C10.718 13.1666 10.526 13.2375 10.375 13.3666L8.04167 15.3666L6.09167 13.4083C6.0138 13.3311 5.92145 13.27 5.81992 13.2285C5.71839 13.187 5.60967 13.166 5.5 13.1666H3C2.77899 13.1666 2.56702 13.0788 2.41074 12.9225C2.25446 12.7663 2.16667 12.5543 2.16667 12.3333V3.16663C2.16667 2.94561 2.25446 2.73365 2.41074 2.57737C2.56702 2.42109 2.77899 2.33329 3 2.33329H13C13.221 2.33329 13.433 2.42109 13.5893 2.57737C13.7455 2.73365 13.8333 2.94561 13.8333 3.16663V12.3333Z" fill="#71839B"/>
</svg>
